<svg xmlns="http://www.w3.org/2000/svg" width="93.264" height="93.262" viewBox="0 0 93.264442 93.261749"><path d="M93.198 31.727a5.414 5.414 0 0 0-.071-.335c-.018-.067-.043-.13-.063-.196-.032-.1-.062-.196-.1-.293-.03-.066-.059-.131-.091-.193a6.803 6.803 0 0 0-.136-.27c-.039-.06-.075-.122-.116-.184-.052-.084-.11-.162-.168-.241-.045-.056-.09-.117-.138-.173-.062-.075-.13-.144-.198-.217a3.918 3.918 0 0 0-.387-.349c-.058-.045-.118-.092-.18-.135-.022-.017-.044-.037-.067-.047L48.856.673a4.004 4.004 0 0 0-4.443 0L1.782 29.087c-.024.017-.043.037-.065.05a3.96 3.96 0 0 0-.183.137 3.089 3.089 0 0 0-.385.345 4.929 4.929 0 0 0-.2.22 2.671 2.671 0 0 0-.136.171c-.06.08-.116.16-.17.243-.038.063-.077.123-.114.185-.05.089-.094.177-.135.265-.033.067-.06.131-.09.196a4.29 4.29 0 0 0-.104.293c-.021.066-.045.13-.06.195-.03.112-.05.224-.071.336-.01.056-.024.116-.032.172A3.861 3.861 0 0 0 0 32.42v28.42c0 .174.013.35.037.523.009.056.021.116.032.172.021.114.043.224.07.333.018.067.042.13.061.196.032.101.065.198.103.295.03.067.058.131.09.196.044.09.087.178.136.267.037.062.076.124.114.185.054.084.11.163.17.243.046.058.089.116.136.172.065.075.131.144.2.22a3.57 3.57 0 0 0 .385.344c.06.045.12.094.183.137.024.018.043.037.065.048L44.41 92.588c.672.45 1.446.674 2.221.674a3.99 3.99 0 0 0 2.223-.674L91.48 64.17c.025-.015.045-.037.066-.048.063-.045.123-.092.181-.137a3.654 3.654 0 0 0 .387-.344c.067-.072.134-.143.198-.22a3.46 3.46 0 0 0 .306-.415c.04-.06.077-.123.116-.185.047-.089.093-.177.136-.267.032-.065.06-.13.09-.196.039-.097.069-.194.101-.295.022-.067.045-.129.063-.196.03-.11.049-.221.07-.333.01-.056.024-.116.033-.172.021-.172.036-.349.036-.523V32.425c0-.179-.015-.351-.036-.525-.006-.054-.022-.114-.03-.173zM46.63 56.113l-14.174-9.478 14.174-9.48 14.176 9.48zm-4.009-25.922L25.247 41.813 11.22 32.43l31.401-20.935zM18.04 46.635L8.013 53.34V39.928zm7.207 4.82l17.375 11.62v18.694l-31.4-20.935zm25.39 11.62l17.376-11.62 14.028 9.38-31.403 20.934zm24.587-16.44l10.027-6.707v13.41zm-7.21-4.824L50.637 30.19V11.496L82.04 32.431z" fill="#2d2d2d"/></svg>