<svg xmlns="http://www.w3.org/2000/svg" width="805.55" height="805.55" viewBox="0 0 213.13498 213.13498"><g transform="matrix(.834 0 0 .834 -.998 -664.81)"><rect width="180.706" height="180.706" x="-653.165" y="654.858" ry="1.962" transform="rotate(-45)" fill="#2d2d2d"/><path d="M128.975 803.096l121.816 121.816-121.816 121.817L7.16 924.912z" opacity=".99" fill="none" stroke="#fff" stroke-width=".926"/></g><g style="line-height:25px;-inkscape-font-specification:'Dry Brush';text-align:start" font-weight="400" font-size="42.667" font-family="King Basil Lite" fill="#dedede" stroke-linecap="round" stroke-linejoin="round"><path d="M63.46 73.79c6.356-5.037 19.306-5.274 22.62 7.71.54 1.758.27 5.342.27 5.883 1.25.27 4.023-.575 5.41-1.59.642-.473.913.373.44 1.015-.88 1.217-4.903 1.961-6.154 1.927-4.294 14.708-16.331 12.51-17.819 11.699-5.748-2.13-1.352-6.255-.811-6.796 2.231-1.894 1.116-.98.811-2.029-.507-1.927-.574-3.922-.304-6.221.27-3.11.744-8.588.744-9.129 1.25.27 4.057 2.367 3.787 3.618-.27 2.57-1.184 9.5-1.454 11.496.54-.27 7.27-2.942 11.022-3.483.913-9.602-5.14-15.688-8.69-15.959-3.11-.54-6.254.88-8.824 2.367-1.014.642-1.048-.507-1.048-.507zm18.36 15.385c-7.676.777-15.317 6.694-14.911 8.08 2.57 5.68 13.862 1.995 14.91-8.08z" style="-inkscape-font-specification:'King Basil Lite'"/><path d="M97.977 87.06c-.265-4.82-1.5-3.91-1.5-3.91-3.175 3.146-3.44 10.879-2.587 10.938 1-.06 2.352-1.823 2.587-3.117.47-2.47 1.264-2.793 1.794-2.264.823.618 1.352 1.44 1.058 2.323-.676 5.263.382 4.91.735 4.704 1.676-1 3.999-4.616 5.234-9.879 0 0 .382-.47.646-.088.441.235.265.823.265.823-2.352 9.32-5.557 9.703-6.35 10.497-3 1.323-3.205-2.882-3.5-3.529-1.822 2.176-3.704 2.059-4.233 1.764-3.91-.617-1.5-11.877 1.705-13.318 3.91-1.764 5.087 3.704 4.88 4.704z" style="-inkscape-font-specification:'King Basil Lite'"/><path d="M123.508 86.65c-3 15.876-7.35 14.347-8.115 13.112-2.205-2.234-2.41-8.497-2.176-10.555 0-1.646 1.853-8.085.236-6.968-2.44 2.146-4.44 8.262-4.734 8.791.53 1.94-.03 2.293-.47 2.381-2.264.353-2.44-1.029-2.676-1.822-.647-2.823-.264-6.322.382-9.056 0-.53.912-.794 1.206-.559 1.117.647 2.146 1.177 1.91 2.47-.234 1.117-.44 3.558-.44 4.087 1.411-4.116 3.146-6.027 4.087-6.968 1.352-1.353 4.233.411 4.557 2.323.235 2.263-.177 4.557-.412 6.203-.94 5.498-.03 7.674.206 7.909.588.647 2.499 1.764 5.674-12.084 0 0 .559.088.588.147.147.235.177.588.177.588z" style="-inkscape-font-specification:'King Basil Lite'"/><path d="M132.293 85.679s.47-.03.529.059c.147.206.176.764.176.764-1.205 9.644-4.528 13.348-8.614 12.29-3.323-1-1.588-13.495-1.411-14.171.205-.824 1.205-1.353 1.822-.97 1.382.881 1.676 1.94 1.5 2.616-.5 2.91-.676 5.763-.823 8.85-.177 3.704 4.763 4.645 6.82-9.438zm-5.146-5.939c-.147.559-.117 1.382-.382 1.676-.206.264-2.322-.206-2.352-.5-1.029-1.911.177-2.646.177-2.646.676.118 2.44.588 2.557 1.47z" style="-inkscape-font-specification:'King Basil Lite'"/><path d="M132.739 93.117c-1.47-3.41-1.176-11.319 4.263-11.319 1.088.059 3.028-.059 3.263 2.146.088 3.675-3.263 5.028-4.469 4.822.118 4.675 1.706 4.351 2.411 4.792.706.294 3.94-.147 6.35-7.644 0 0 .471-.088.56.059.146.206.088.647.088.647-2.97 11.231-11.29 8.732-12.466 6.497zm2.97-5.439c1.44-.117 2.88-.44 3.233-3.234-.088-1.705-1.205-1.734-1.705-1.382-.882 1.088-1.235 2.205-1.529 4.616z" style="-inkscape-font-specification:'King Basil Lite'"/><path d="M149.937 99.644c1.323-.029 4.41-3.292 6.174-13.789 0 0 .56.03.618.147.147.206.176.677.176.677-2.47 15.788-8.173 14.876-8.996 14.083-.97-.97-1.794-1.735-2.264-3.44-2.088-8.997-.47-20.287.294-23.021 1.91-7.791 6.41-6.762 7.468-5.528 2.499 2.97-.912 12.672-5.204 16.788-.06 1.53-.089 13.79 1.734 14.083zm-1.793-15.582s4.116-3.734 4.88-11.937c.324-3.557-1.352-3.822-1.823-2.763-1.41 1.675-2.822 11.848-3.057 14.7z" style="-inkscape-font-specification:'King Basil Lite'"/></g><g style="line-height:25px;-inkscape-font-specification:'King Basil Lite';text-align:start" font-weight="400" font-size="42.667" font-family="King Basil Lite" fill="#dedede" stroke-linecap="round" stroke-linejoin="round"><path d="M46.175 114.039c6.82-5.405 20.714-5.66 24.27 8.271.58 1.886.29 5.732.29 6.312 1.342.29 4.316-.617 5.804-1.705.689-.508.98.4.471 1.088-.943 1.306-5.26 2.104-6.602 2.068-4.607 15.78-17.522 13.422-19.118 12.552-6.167-2.286-1.45-6.711-.87-7.292 2.394-2.031 1.197-1.052.87-2.176-.544-2.068-.616-4.208-.326-6.675.29-3.338.798-9.214.798-9.795 1.342.29 4.353 2.54 4.063 3.882-.29 2.757-1.27 10.193-1.56 12.334.58-.29 7.8-3.156 11.826-3.737.98-10.302-5.514-16.832-9.323-17.122-3.337-.58-6.711.943-9.468 2.54-1.088.688-1.125-.545-1.125-.545zm19.698 16.506c-8.234.834-16.433 7.182-15.998 8.67 2.757 6.094 14.874 2.14 15.998-8.67z"/><path d="M86.585 129.227c.786.524 4.323.556 5.404-2.555 0 0 .13-.524.72-.163.426.262.164.851.164.851-1.801 4.094-6.222 3.111-6.648 3.046-1.441 5.305-3.897 6.058-6.222 6.353-2.948.196-3.93-3.733-4.094-5.567-.36-4.225 1.18-8.122 3.34-7.729-.196-2.325 1.343-2.882 1.867-3.144 1.441-.72 4.29-.13 5.273 2.686.59 1.866 1.146 3.47.196 6.222zm-7.008-5.207c0 .262.851 1.997.72 2.39-.262 1.409-.589 7.827 1.507 8.384 1.212-.196 2.423-1.932 3.471-4.683-1.31-.23-4.192-2.784-5.698-6.091zm6.058 4.617c.786-3.995-.589-5.698-1.178-6.582-.82-1.08-2.915-1.9-3.112.655 0 1.997 2.326 5.01 4.29 5.927z"/><path d="M96.293 132.109c2.685-1.998 3.47-2.424 4.388-2.456 1.866-.066 4.224 1.113 4.159 4.126.491-.131 3.504-.852 5.207-7.172l.524.065c.36.328.196.852.196.852-1.015 5.633-4.88 6.91-5.829 7.172-.164 6.811-7.696 9.268-9.333 7.5-.262-.263-.262-.492-.262-1.147-1.769.884-2.456.098-2.817-.622-2.063-8.351.23-19.78 1.081-22.63 2.882-9.169 5.633-9.3 7.762-9.89 3.34-.032 5.174 1.54 4.552 6.255-2.096 11.07-9.628 17.947-9.628 17.947zm-.95-.82c3.11-2.291 12.28-15.587 8.776-21.155-2.128-3.209-4.715 1.245-5.567 3.668-2.816 7.041-3.045 15.818-3.21 17.488zm.13 9.4s.59-3.93 5.896-5.731c.294-1.769-.295-4.356-1.54-4.028-1.44.393-2.292 1.048-3.242 2.063-1.506 1.637-1.408 5.24-1.113 7.696zm.689.884c1.604.884 4.29-1.08 5.108-5.436-1.637-.099-5.763 4.552-5.108 5.436z"/><path d="M116 141.966c1.474-.033 4.912-3.668 6.877-15.36 0 0 .622.034.688.165.164.229.196.753.196.753-2.75 17.586-9.104 16.57-10.02 15.686-1.081-1.08-1.998-1.932-2.522-3.831-2.325-10.021-.524-22.597.327-25.642 2.129-8.679 7.14-7.532 8.318-6.157 2.784 3.308-1.015 14.115-5.796 18.7-.066 1.702-.098 15.358 1.932 15.686zm-1.998-17.357s4.585-4.159 5.437-13.296c.36-3.962-1.507-4.257-2.03-3.078-1.573 1.867-3.145 13.198-3.407 16.374z"/><path d="M130.528 127.95c-.295-5.371-1.67-4.356-1.67-4.356-3.537 3.504-3.832 12.117-2.882 12.182 1.113-.065 2.62-2.03 2.882-3.47.524-2.752 1.408-3.112 1.997-2.523.917.688 1.507 1.605 1.18 2.588-.754 5.862.425 5.469.818 5.24 1.867-1.114 4.454-5.142 5.83-11.004 0 0 .425-.524.72-.098.491.262.295.917.295.917-2.62 10.38-6.19 10.807-7.074 11.69-3.34 1.474-3.57-3.209-3.897-3.929-2.03 2.423-4.126 2.292-4.716 1.965-4.355-.688-1.67-13.23 1.9-14.835 4.355-1.965 5.665 4.126 5.436 5.24z"/><path d="M152.253 141.868c.851-.393 3.045-4.716 5.567-15.392 0 0 .524-.098.59.033.294.163.294.95.294.95-3.864 16.44-6.288 17.65-9.595 15.915-2.391-1.506-2.194-6.484-2.653-7.99-2.194 5.174-5.698 3.307-6.19 2.914-3.307-2.063-2.718-11.626-.72-13.132 2.03-1.54 4.29-1.179 6.55-.557.393-13.492 3.962-15.392 4.716-16.374 4.945-4.781 5.272 3.177 4.191 7.368-2.325 8.712-3.504 10.513-4.912 13.198-.164 10.12.884 13.656 2.162 13.067zm-2.522-14.934s1.506-2.652 3.799-11.494c1.539-7.729-.72-7.5-1.081-6.812-2.718 6.713-2.784 17.717-2.718 18.306zm-6.583 10.25c1.507.164 3.079-2.816 3.112-3.536.098-2.456-.197-6.452-.197-7.663-6.746-1.245-5.272 10.938-2.915 11.2z"/><path d="M168.2 129.227c.786.524 4.323.556 5.404-2.555 0 0 .131-.524.72-.163.426.262.164.851.164.851-1.8 4.094-6.222 3.111-6.648 3.046-1.44 5.305-3.897 6.058-6.222 6.353-2.947.196-3.93-3.733-4.093-5.567-.36-4.225 1.178-8.122 3.34-7.729-.197-2.325 1.343-2.882 1.867-3.144 1.44-.72 4.29-.13 5.272 2.686.59 1.866 1.146 3.47.197 6.222zm-7.008-5.207c0 .262.852 1.997.72 2.39-.261 1.409-.589 7.827 1.507 8.384 1.212-.196 2.424-1.932 3.472-4.683-1.31-.23-4.192-2.784-5.699-6.091zm6.059 4.617c.786-3.995-.59-5.698-1.18-6.582-.818-1.08-2.914-1.9-3.11.655 0 1.997 2.325 5.01 4.29 5.927z"/></g></svg>