<svg xmlns="http://www.w3.org/2000/svg" width="48" height="48" viewBox="0 0 12.7 12.7"><g fill="none" stroke="#2d2d2d"><path d="M.877 3.307a6.065 6.065 0 0 0-.745 2.91 6.085 6.085 0 1 0 11.427-2.91z" stroke-width=".265"/><path d="M6.218.132A6.08 6.08 0 0 0 .876 3.307H11.56A6.078 6.078 0 0 0 6.218.132z" fill="#2d2d2d" fill-rule="evenodd" stroke-width=".265"/><path d="M4.486 1.72l.325.529-.325.53h-.651l.325-.53-.325-.53m1.941.001l.325.529-.325.53h-.651l.325-.53-.325-.53m1.898.001l.325.529-.325.53H6.37l.326-.53-.326-.53m1.9.001l.326.529-.325.53H7.62l.325-.53-.325-.53m.65 0" fill="#fff" fill-rule="evenodd" stroke="none"/></g><path style="line-height:normal;text-indent:0;text-align:start;text-decoration-line:none;text-transform:none" d="M2.699 6.008l1.684-1.684a.393.393 0 0 1 .56 0L6.44 5.821c.443.443.635 1.008 1.218 1.592l.747.747.28.28.281.28a1.055 1.055 0 0 1 0 1.498l-.374.374a1.053 1.053 0 0 1-1.497 0l-.28-.28-.281-.282-.747-.746c-.583-.584-1.149-.775-1.592-1.218L2.7 6.569a.393.393 0 0 1 0-.561zm.28.094a.267.267 0 0 0 0 .374.267.267 0 0 0 .375 0 .267.267 0 0 0 0-.374.267.267 0 0 0-.375 0zm.563-.376c-.128.125.062.315.187.187l.187-.187c.129-.125-.062-.315-.187-.187zm.561-.561c-.128.124.063.315.187.187l.188-.187c.128-.125-.063-.316-.188-.187zm-.469 1.404c-.128.125.063.316.187.187l.187-.187c.129-.124-.062-.315-.187-.187zm.561-.561c-.128.125.063.315.188.187l.187-.187c.128-.125-.063-.315-.187-.187zm.562-.561c-.129.124.062.315.187.187l.187-.187c.128-.125-.063-.316-.187-.187zm-.749 1.496c-.128.125.063.316.187.188l.188-.188c.128-.124-.063-.315-.188-.187zm.562-.56c-.129.124.062.315.187.186l.187-.187c.128-.124-.063-.315-.187-.187zm.56-.562c-.128.125.063.315.188.187l.187-.187c.128-.125-.062-.315-.187-.187zm-.747 1.497c-.129.124.062.315.187.187l.187-.187c.128-.125-.063-.316-.187-.187zm.56-.562c-.128.125.063.316.188.187l.187-.187c.128-.124-.062-.315-.187-.187zm.562-.56c-.128.124.062.315.187.186l.187-.187c.129-.125-.062-.315-.187-.187zm-.748 1.496c-.129.124.062.315.187.187l.187-.187c.128-.125-.063-.316-.187-.187zm.561-.561c-.128.124.062.315.187.187l.187-.187c.129-.125-.062-.316-.187-.188zm.561-.562c-.128.125.063.316.187.187l.187-.187c.129-.124-.062-.315-.187-.187zm-.561 1.684c-.128.125.062.315.187.187l.187-.187c.129-.125-.062-.315-.187-.187zm1.121-1.121c-.128.125.062.315.187.187l.187-.187c.129-.125-.062-.315-.187-.187zm-.374.561a.13.13 0 0 0-.037.092v.397c-.004.18.267.18.264 0v-.264h.265c.18.003.18-.268 0-.265H6.16a.132.132 0 0 0-.095.04zm-.003.91a.128.128 0 0 0-.036.094v.397c0 .073.06.132.132.132h.397c.18.003.18-.268 0-.265h-.264v-.264a.132.132 0 0 0-.23-.093zm.913-.913a.132.132 0 0 0 .096.226h.265v.265c-.003.18.268.18.264 0v-.397a.132.132 0 0 0-.132-.132h-.397a.135.135 0 0 0-.096.038zm-.441.47a.399.399 0 0 0 0 .56.399.399 0 0 0 .561 0 .399.399 0 0 0 0-.56.399.399 0 0 0-.561 0zm.187.187a.13.13 0 0 1 .187 0 .13.13 0 0 1 0 .187.13.13 0 0 1-.187 0 .13.13 0 0 1 0-.187zm.653.258a.13.13 0 0 0-.037.093v.265h-.264a.132.132 0 1 0 0 .265h.396c.074 0 .133-.06.133-.133v-.397a.132.132 0 0 0-.228-.093zm-.56 1.145c-.128.124.063.315.188.187l.187-.187c.128-.125-.063-.316-.187-.187zm1.122-1.121c-.129.124.062.315.187.187l.187-.187c.128-.125-.062-.316-.187-.187zm-.747 1.495c-.129.125.062.315.187.187l.187-.187c.128-.125-.062-.315-.187-.187zm.561-.561c-.128.124.062.315.187.187l.187-.187c.129-.125-.062-.316-.187-.187zM8.311 9c-.128.125.063.316.187.188L8.686 9c.128-.124-.063-.315-.188-.187zm-.748 1.497c-.128.125.062.316.187.187l.187-.187c.129-.124-.062-.315-.187-.187zm.561-.561c-.128.125.063.315.187.187l.187-.187c.129-.125-.062-.315-.187-.187zm.562-.561c-.129.124.062.315.187.187l.187-.187c.128-.125-.063-.316-.187-.187z" color="#000" font-weight="400" font-family="sans-serif" overflow="visible" fill="#2d2d2d"/></svg>