<svg xmlns="http://www.w3.org/2000/svg" viewBox="0 0 256 256" width="256" height="256"><path d="M254.537 128.006l-63.264 109.586H64.727L1.457 128.006l63.27-109.585h126.546l63.27 109.585z" fill="#2d2d2d"/><path d="M104.033 18.408v219.175h47.934V18.408h-47.934z" fill="#fff"/><path d="M112.181 18.408v219.175h31.635V18.408h-31.635z" fill="#2d2d2d"/><path d="M210.923 52.439L21.118 162.026l23.967 41.51L234.89 93.95l-23.967-41.51z" fill="#fff"/><path d="M214.997 59.495L25.192 169.082l15.817 27.396L230.815 86.891l-15.818-27.396z" fill="#2d2d2d"/><path d="M234.884 162.028L45.078 52.44 21.112 93.95l189.805 109.588 23.967-41.51z" fill="#fff"/><path d="M230.81 169.084L41.004 59.496 25.187 86.892 214.992 196.48l15.818-27.396z" fill="#2d2d2d"/></svg>